<?xml version="1.0" encoding="utf-8"?><svg xmlns="http://www.w3.org/2000/svg" xmlns:xlink="http://www.w3.org/1999/xlink" width="1304" height="645" preserveAspectRatio="xMidYMid" viewBox="0 0 1304 645" style="z-index:1;margin-right:-1.92308px;display:block;background-color:rgb(255, 255, 255);animation-play-state:paused" ><g transform="translate(652,322.5) scale(1,1) translate(-652,-322.5)" style="transform:matrix(1, 0, 0, 1, 0, 0);animation-play-state:paused" ><g id="bk-0.8367827359009865" style="animation-play-state:paused" ><path d="M 647 280 L 515 250 L 597 351 Z" stroke="#b57040" fill="#b57040" style="animation-play-state:paused" ></path>
<path d="M 515 250 L 513 361 L 597 351 Z" stroke="#b46f40" fill="#b46f40" style="animation-play-state:paused" ></path>
<path d="M 647 280 L 625 155 L 515 250 Z" stroke="#c47c48" fill="#c47c48" style="animation-play-state:paused" ></path>
<path d="M 625 155 L 527 139 L 515 250 Z" stroke="#d58a50" fill="#d58a50" style="animation-play-state:paused" ></path>
<path d="M 515 250 L 401 359 L 513 361 Z" stroke="#bc7544" fill="#bc7544" style="animation-play-state:paused" ></path>
<path d="M 746 378 L 724 274 L 647 280 Z" stroke="#a36138" fill="#a36138" style="animation-play-state:paused" ></path>
<path d="M 647 280 L 714 153 L 625 155 Z" stroke="#c67d48" fill="#c67d48" style="animation-play-state:paused" ></path>
<path d="M 441 157 L 406 260 L 515 250 Z" stroke="#d78b50" fill="#d78b50" style="animation-play-state:paused" ></path>
<path d="M 724 455 L 746 378 L 597 351 Z" stroke="#91542f" fill="#91542f" style="animation-play-state:paused" ></path>
<path d="M 597 351 L 746 378 L 647 280 Z" stroke="#a26037" fill="#a26037" style="animation-play-state:paused" ></path>
<path d="M 406 260 L 401 359 L 515 250 Z" stroke="#c87f4a" fill="#c87f4a" style="animation-play-state:paused" ></path>
<path d="M 441 462 L 509 469 L 513 361 Z" stroke="#a56339" fill="#a56339" style="animation-play-state:paused" ></path>
<path d="M 513 361 L 622 456 L 597 351 Z" stroke="#a16037" fill="#a16037" style="animation-play-state:paused" ></path>
<path d="M 509 469 L 622 456 L 513 361 Z" stroke="#9d5d35" fill="#9d5d35" style="animation-play-state:paused" ></path>
<path d="M 527 139 L 441 157 L 515 250 Z" stroke="#d99055" fill="#d99055" style="animation-play-state:paused" ></path>
<path d="M 724 274 L 714 153 L 647 280 Z" stroke="#b77141" fill="#b77141" style="animation-play-state:paused" ></path>
<path d="M 622 456 L 724 455 L 597 351 Z" stroke="#91532f" fill="#91532f" style="animation-play-state:paused" ></path>
<path d="M 401 359 L 441 462 L 513 361 Z" stroke="#b16c3e" fill="#b16c3e" style="animation-play-state:paused" ></path>
<path d="M 509 469 L 503 550 L 622 456 Z" stroke="#925430" fill="#925430" style="animation-play-state:paused" ></path>
<path d="M 638 63 L 539 79 L 625 155 Z" stroke="#db9b60" fill="#db9b60" style="animation-play-state:paused" ></path>
<path d="M 625 155 L 539 79 L 527 139 Z" stroke="#da985d" fill="#da985d" style="animation-play-state:paused" ></path>
<path d="M 527 139 L 404 50 L 441 157 Z" stroke="#dda66c" fill="#dda66c" style="animation-play-state:paused" ></path>
<path d="M 714 153 L 638 63 L 625 155 Z" stroke="#d88e53" fill="#d88e53" style="animation-play-state:paused" ></path>
<path d="M 846 478 L 813 366 L 746 378 Z" stroke="#804727" fill="#804727" style="animation-play-state:paused" ></path>
<path d="M 746 378 L 813 366 L 724 274 Z" stroke="#955731" fill="#955731" style="animation-play-state:paused" ></path>
<path d="M 724 274 L 810 149 L 714 153 Z" stroke="#be7644" fill="#be7644" style="animation-play-state:paused" ></path>
<path d="M 813 366 L 813 267 L 724 274 Z" stroke="#9c5c35" fill="#9c5c35" style="animation-play-state:paused" ></path>
<path d="M 714 153 L 732 68 L 638 63 Z" stroke="#d99358" fill="#d99358" style="animation-play-state:paused" ></path>
<path d="M 314 257 L 401 359 L 406 260 Z" stroke="#d1864e" fill="#d1864e" style="animation-play-state:paused" ></path>
<path d="M 314 257 L 332 368 L 401 359 Z" stroke="#cc824b" fill="#cc824b" style="animation-play-state:paused" ></path>
<path d="M 401 359 L 332 368 L 441 462 Z" stroke="#b97342" fill="#b97342" style="animation-play-state:paused" ></path>
<path d="M 319 155 L 406 260 L 441 157 Z" stroke="#db9b60" fill="#db9b60" style="animation-play-state:paused" ></path>
<path d="M 319 155 L 314 257 L 406 260 Z" stroke="#da985d" fill="#da985d" style="animation-play-state:paused" ></path>
<path d="M 441 462 L 503 550 L 509 469 Z" stroke="#9a5b34" fill="#9a5b34" style="animation-play-state:paused" ></path>
<path d="M 622 456 L 699 561 L 724 455 Z" stroke="#7f4627" fill="#7f4627" style="animation-play-state:paused" ></path>
<path d="M 503 550 L 614 553 L 622 456 Z" stroke="#884d2b" fill="#884d2b" style="animation-play-state:paused" ></path>
<path d="M 724 455 L 846 478 L 746 378 Z" stroke="#7d4526" fill="#7d4526" style="animation-play-state:paused" ></path>
<path d="M 810 149 L 732 68 L 714 153 Z" stroke="#d1864e" fill="#d1864e" style="animation-play-state:paused" ></path>
<path d="M 428 -30 L 404 50 L 539 79 Z" stroke="#e3bb86" fill="#e3bb86" style="animation-play-state:paused" ></path>
<path d="M 813 267 L 810 149 L 724 274 Z" stroke="#b06b3e" fill="#b06b3e" style="animation-play-state:paused" ></path>
<path d="M 404 50 L 319 155 L 441 157 Z" stroke="#dfac73" fill="#dfac73" style="animation-play-state:paused" ></path>
<path d="M 614 553 L 699 561 L 622 456 Z" stroke="#7e4526" fill="#7e4526" style="animation-play-state:paused" ></path>
<path d="M 609 -37 L 539 79 L 638 63 Z" stroke="#dfad75" fill="#dfad75" style="animation-play-state:paused" ></path>
<path d="M 539 79 L 404 50 L 527 139 Z" stroke="#dea970" fill="#dea970" style="animation-play-state:paused" ></path>
<path d="M 237 358 L 313 455 L 332 368 Z" stroke="#c77e49" fill="#c77e49" style="animation-play-state:paused" ></path>
<path d="M 332 368 L 313 455 L 441 462 Z" stroke="#b77141" fill="#b77141" style="animation-play-state:paused" ></path>
<path d="M 441 462 L 406 554 L 503 550 Z" stroke="#9b5b34" fill="#9b5b34" style="animation-play-state:paused" ></path>
<path d="M 313 455 L 406 554 L 441 462 Z" stroke="#a9663b" fill="#a9663b" style="animation-play-state:paused" ></path>
<path d="M 503 550 L 518 635 L 614 553 Z" stroke="#854a2a" fill="#854a2a" style="animation-play-state:paused" ></path>
<path d="M 699 561 L 846 478 L 724 455 Z" stroke="#733e23" fill="#733e23" style="animation-play-state:paused" ></path>
<path d="M 813 366 L 942 283 L 813 267 Z" stroke="#945630" fill="#945630" style="animation-play-state:paused" ></path>
<path d="M 810 149 L 817 79 L 732 68 Z" stroke="#d58a50" fill="#d58a50" style="animation-play-state:paused" ></path>
<path d="M 918 162 L 817 79 L 810 149 Z" stroke="#c67d49" fill="#c67d49" style="animation-play-state:paused" ></path>
<path d="M 918 162 L 810 149 L 813 267 Z" stroke="#b46f40" fill="#b46f40" style="animation-play-state:paused" ></path>
<path d="M 702 -57 L 638 63 L 732 68 Z" stroke="#dea86e" fill="#dea86e" style="animation-play-state:paused" ></path>
<path d="M 702 -57 L 609 -37 L 638 63 Z" stroke="#e1b57f" fill="#e1b57f" style="animation-play-state:paused" ></path>
<path d="M 609 -37 L 533 -34 L 539 79 Z" stroke="#e2b984" fill="#e2b984" style="animation-play-state:paused" ></path>
<path d="M 533 -34 L 428 -30 L 539 79 Z" stroke="#e4be8b" fill="#e4be8b" style="animation-play-state:paused" ></path>
<path d="M 404 50 L 301 55 L 319 155 Z" stroke="#e2b984" fill="#e2b984" style="animation-play-state:paused" ></path>
<path d="M 202 272 L 237 358 L 314 257 Z" stroke="#da9559" fill="#da9559" style="animation-play-state:paused" ></path>
<path d="M 314 257 L 237 358 L 332 368 Z" stroke="#d4894f" fill="#d4894f" style="animation-play-state:paused" ></path>
<path d="M 313 455 L 309 547 L 406 554 Z" stroke="#ac683c" fill="#ac683c" style="animation-play-state:paused" ></path>
<path d="M 202 272 L 314 257 L 319 155 Z" stroke="#dca065" fill="#dca065" style="animation-play-state:paused" ></path>
<path d="M 930 362 L 942 283 L 813 366 Z" stroke="#874c2b" fill="#874c2b" style="animation-play-state:paused" ></path>
<path d="M 228 170 L 202 272 L 319 155 Z" stroke="#dea970" fill="#dea970" style="animation-play-state:paused" ></path>
<path d="M 413 654 L 518 635 L 406 554 Z" stroke="#90532f" fill="#90532f" style="animation-play-state:paused" ></path>
<path d="M 406 554 L 518 635 L 503 550 Z" stroke="#8f522f" fill="#8f522f" style="animation-play-state:paused" ></path>
<path d="M 614 553 L 718 639 L 699 561 Z" stroke="#713c22" fill="#713c22" style="animation-play-state:paused" ></path>
<path d="M 314 -60 L 301 55 L 404 50 Z" stroke="#e7ca9c" fill="#e7ca9c" style="animation-play-state:paused" ></path>
<path d="M 835 -36 L 702 -57 L 732 68 Z" stroke="#dfac73" fill="#dfac73" style="animation-play-state:paused" ></path>
<path d="M 518 635 L 614 664 L 614 553 Z" stroke="#7b4325" fill="#7b4325" style="animation-play-state:paused" ></path>
<path d="M 699 561 L 830 570 L 846 478 Z" stroke="#683621" fill="#683621" style="animation-play-state:paused" ></path>
<path d="M 846 478 L 930 362 L 813 366 Z" stroke="#7a4225" fill="#7a4225" style="animation-play-state:paused" ></path>
<path d="M 235 458 L 309 547 L 313 455 Z" stroke="#b97342" fill="#b97342" style="animation-play-state:paused" ></path>
<path d="M 718 639 L 830 570 L 699 561 Z" stroke="#663521" fill="#663521" style="animation-play-state:paused" ></path>
<path d="M 846 478 L 917 471 L 930 362 Z" stroke="#6e3a22" fill="#6e3a22" style="animation-play-state:paused" ></path>
<path d="M 942 283 L 918 162 L 813 267 Z" stroke="#a36138" fill="#a36138" style="animation-play-state:paused" ></path>
<path d="M 614 664 L 718 639 L 614 553 Z" stroke="#713c22" fill="#713c22" style="animation-play-state:paused" ></path>
<path d="M 301 55 L 228 170 L 319 155 Z" stroke="#e1b680" fill="#e1b680" style="animation-play-state:paused" ></path>
<path d="M 913 541 L 917 471 L 846 478 Z" stroke="#623320" fill="#623320" style="animation-play-state:paused" ></path>
<path d="M 237 358 L 235 458 L 313 455 Z" stroke="#c77e49" fill="#c77e49" style="animation-play-state:paused" ></path>
<path d="M 133 376 L 235 458 L 237 358 Z" stroke="#d4894f" fill="#d4894f" style="animation-play-state:paused" ></path>
<path d="M 331 669 L 413 654 L 406 554 Z" stroke="#995a33" fill="#995a33" style="animation-play-state:paused" ></path>
<path d="M 522 765 L 634 759 L 614 664 Z" stroke="#713c22" fill="#713c22" style="animation-play-state:paused" ></path>
<path d="M 915 62 L 835 -36 L 817 79 Z" stroke="#da975c" fill="#da975c" style="animation-play-state:paused" ></path>
<path d="M 817 79 L 835 -36 L 732 68 Z" stroke="#db9b60" fill="#db9b60" style="animation-play-state:paused" ></path>
<path d="M 918 162 L 915 62 L 817 79 Z" stroke="#cc824b" fill="#cc824b" style="animation-play-state:paused" ></path>
<path d="M 908 652 L 913 541 L 830 570 Z" stroke="#532a1e" fill="#532a1e" style="animation-play-state:paused" ></path>
<path d="M 830 570 L 913 541 L 846 478 Z" stroke="#603220" fill="#603220" style="animation-play-state:paused" ></path>
<path d="M 320 -139 L 314 -60 L 428 -30 Z" stroke="#efdfbc" fill="#efdfbc" style="animation-play-state:paused" ></path>
<path d="M 428 -30 L 314 -60 L 404 50 Z" stroke="#e8cda1" fill="#e8cda1" style="animation-play-state:paused" ></path>
<path d="M 301 55 L 214 38 L 228 170 Z" stroke="#e5c391" fill="#e5c391" style="animation-play-state:paused" ></path>
<path d="M 523 -151 L 428 -30 L 533 -34 Z" stroke="#ead2a8" fill="#ead2a8" style="animation-play-state:paused" ></path>
<path d="M 523 -151 L 533 -34 L 609 -37 Z" stroke="#e9cea1" fill="#e9cea1" style="animation-play-state:paused" ></path>
<path d="M 930 362 L 1007 345 L 942 283 Z" stroke="#824828" fill="#824828" style="animation-play-state:paused" ></path>
<path d="M 942 283 L 1016 272 L 918 162 Z" stroke="#9c5c35" fill="#9c5c35" style="animation-play-state:paused" ></path>
<path d="M 918 162 L 1001 35 L 915 62 Z" stroke="#cc824b" fill="#cc824b" style="animation-play-state:paused" ></path>
<path d="M 1036 473 L 1007 345 L 930 362 Z" stroke="#6f3b22" fill="#6f3b22" style="animation-play-state:paused" ></path>
<path d="M 1036 473 L 930 362 L 917 471 Z" stroke="#683621" fill="#683621" style="animation-play-state:paused" ></path>
<path d="M 242 -14 L 214 38 L 301 55 Z" stroke="#e9d0a5" fill="#e9d0a5" style="animation-play-state:paused" ></path>
<path d="M 107 245 L 133 376 L 202 272 Z" stroke="#dda268" fill="#dda268" style="animation-play-state:paused" ></path>
<path d="M 629 -151 L 609 -37 L 705 -146 Z" stroke="#ead1a6" fill="#ead1a6" style="animation-play-state:paused" ></path>
<path d="M 629 -151 L 523 -151 L 609 -37 Z" stroke="#ebd6ad" fill="#ebd6ad" style="animation-play-state:paused" ></path>
<path d="M 705 -146 L 609 -37 L 702 -57 Z" stroke="#e6c797" fill="#e6c797" style="animation-play-state:paused" ></path>
<path d="M 235 458 L 234 568 L 309 547 Z" stroke="#b87242" fill="#b87242" style="animation-play-state:paused" ></path>
<path d="M 309 547 L 331 669 L 406 554 Z" stroke="#a26137" fill="#a26137" style="animation-play-state:paused" ></path>
<path d="M 122 569 L 234 568 L 235 458 Z" stroke="#c17946" fill="#c17946" style="animation-play-state:paused" ></path>
<path d="M 133 376 L 237 358 L 202 272 Z" stroke="#da955a" fill="#da955a" style="animation-play-state:paused" ></path>
<path d="M 234 568 L 331 669 L 309 547 Z" stroke="#ab673b" fill="#ab673b" style="animation-play-state:paused" ></path>
<path d="M 522 765 L 614 664 L 518 635 Z" stroke="#794224" fill="#794224" style="animation-play-state:paused" ></path>
<path d="M 121 163 L 202 272 L 228 170 Z" stroke="#e0b17a" fill="#e0b17a" style="animation-play-state:paused" ></path>
<path d="M 1007 345 L 1016 272 L 942 283 Z" stroke="#884d2b" fill="#884d2b" style="animation-play-state:paused" ></path>
<path d="M 718 639 L 824 660 L 830 570 Z" stroke="#5b2f1f" fill="#5b2f1f" style="animation-play-state:paused" ></path>
<path d="M 731 754 L 824 660 L 718 639 Z" stroke="#5a2e1f" fill="#5a2e1f" style="animation-play-state:paused" ></path>
<path d="M 634 759 L 718 639 L 614 664 Z" stroke="#693721" fill="#693721" style="animation-play-state:paused" ></path>
<path d="M 134 64 L 121 163 L 228 170 Z" stroke="#e5c291" fill="#e5c291" style="animation-play-state:paused" ></path>
<path d="M 839 -146 L 705 -146 L 702 -57 Z" stroke="#e8cb9d" fill="#e8cb9d" style="animation-play-state:paused" ></path>
<path d="M 839 -146 L 702 -57 L 835 -36 Z" stroke="#e4be8a" fill="#e4be8a" style="animation-play-state:paused" ></path>
<path d="M 121 163 L 107 245 L 202 272 Z" stroke="#e0b179" fill="#e0b179" style="animation-play-state:paused" ></path>
<path d="M 1016 272 L 1010 156 L 918 162 Z" stroke="#a7643a" fill="#a7643a" style="animation-play-state:paused" ></path>
<path d="M 314 -60 L 242 -14 L 301 55 Z" stroke="#ebd5ac" fill="#ebd5ac" style="animation-play-state:paused" ></path>
<path d="M 214 38 L 134 64 L 228 170 Z" stroke="#e7c899" fill="#e7c899" style="animation-play-state:paused" ></path>
<path d="M 235 -133 L 242 -14 L 314 -60 Z" stroke="#f2e5c6" fill="#f2e5c6" style="animation-play-state:paused" ></path>
<path d="M 522 765 L 518 635 L 429 770 Z" stroke="#814728" fill="#814728" style="animation-play-state:paused" ></path>
<path d="M 629 -151 L 411 -141 L 523 -151 Z" stroke="#f1e4c4" fill="#f1e4c4" style="animation-play-state:paused" ></path>
<path d="M 523 -151 L 411 -141 L 428 -30 Z" stroke="#efdfbb" fill="#efdfbb" style="animation-play-state:paused" ></path>
<path d="M 705 -146 L 411 -141 L 629 -151 Z" stroke="#efdfbc" fill="#efdfbc" style="animation-play-state:paused" ></path>
<path d="M 1004 543 L 917 471 L 913 541 Z" stroke="#572d1e" fill="#572d1e" style="animation-play-state:paused" ></path>
<path d="M 1004 543 L 1036 473 L 917 471 Z" stroke="#572d1e" fill="#572d1e" style="animation-play-state:paused" ></path>
<path d="M 1136 355 L 1123 249 L 1016 272 Z" stroke="#814828" fill="#814828" style="animation-play-state:paused" ></path>
<path d="M 1001 35 L 912 -37 L 915 62 Z" stroke="#da955a" fill="#da955a" style="animation-play-state:paused" ></path>
<path d="M 915 62 L 912 -37 L 835 -36 Z" stroke="#dca066" fill="#dca066" style="animation-play-state:paused" ></path>
<path d="M 429 770 L 518 635 L 413 654 Z" stroke="#894d2b" fill="#894d2b" style="animation-play-state:paused" ></path>
<path d="M -1 362 L 115 439 L 133 376 Z" stroke="#db9b60" fill="#db9b60" style="animation-play-state:paused" ></path>
<path d="M 133 376 L 115 439 L 235 458 Z" stroke="#d68a50" fill="#d68a50" style="animation-play-state:paused" ></path>
<path d="M 411 -141 L 320 -139 L 428 -30 Z" stroke="#f1e3c3" fill="#f1e3c3" style="animation-play-state:paused" ></path>
<path d="M 331 771 L 429 770 L 331 669 Z" stroke="#955731" fill="#955731" style="animation-play-state:paused" ></path>
<path d="M 331 669 L 429 770 L 413 654 Z" stroke="#925530" fill="#925530" style="animation-play-state:paused" ></path>
<path d="M 912 -37 L 839 -146 L 835 -36 Z" stroke="#e2b782" fill="#e2b782" style="animation-play-state:paused" ></path>
<path d="M 1010 156 L 1001 35 L 918 162 Z" stroke="#bf7845" fill="#bf7845" style="animation-play-state:paused" ></path>
<path d="M 522 765 L 731 754 L 634 759 Z" stroke="#6a3821" fill="#6a3821" style="animation-play-state:paused" ></path>
<path d="M 634 759 L 731 754 L 718 639 Z" stroke="#613220" fill="#613220" style="animation-play-state:paused" ></path>
<path d="M 833 757 L 908 652 L 824 660 Z" stroke="#4a261c" fill="#4a261c" style="animation-play-state:paused" ></path>
<path d="M 824 660 L 908 652 L 830 570 Z" stroke="#51291d" fill="#51291d" style="animation-play-state:paused" ></path>
<path d="M 908 652 L 1004 543 L 913 541 Z" stroke="#4c271c" fill="#4c271c" style="animation-play-state:paused" ></path>
<path d="M 124 -46 L 214 38 L 242 -14 Z" stroke="#efdeba" fill="#efdeba" style="animation-play-state:paused" ></path>
<path d="M 124 -46 L 134 64 L 214 38 Z" stroke="#eedcb6" fill="#eedcb6" style="animation-play-state:paused" ></path>
<path d="M 121 163 L 22 244 L 107 245 Z" stroke="#e3ba86" fill="#e3ba86" style="animation-play-state:paused" ></path>
<path d="M 122 569 L 210 657 L 234 568 Z" stroke="#bb7443" fill="#bb7443" style="animation-play-state:paused" ></path>
<path d="M 234 568 L 210 657 L 331 669 Z" stroke="#ad693c" fill="#ad693c" style="animation-play-state:paused" ></path>
<path d="M 115 439 L 122 569 L 235 458 Z" stroke="#cd834c" fill="#cd834c" style="animation-play-state:paused" ></path>
<path d="M 731 754 L 833 757 L 824 660 Z" stroke="#51291d" fill="#51291d" style="animation-play-state:paused" ></path>
<path d="M 1136 355 L 1016 272 L 1007 345 Z" stroke="#7b4325" fill="#7b4325" style="animation-play-state:paused" ></path>
<path d="M 1016 272 L 1123 249 L 1010 156 Z" stroke="#985933" fill="#985933" style="animation-play-state:paused" ></path>
<path d="M 1010 156 L 1127 52 L 1001 35 Z" stroke="#c67d48" fill="#c67d48" style="animation-play-state:paused" ></path>
<path d="M 1136 355 L 1007 345 L 1036 473 Z" stroke="#693721" fill="#693721" style="animation-play-state:paused" ></path>
<path d="M 226 745 L 331 771 L 331 669 Z" stroke="#a05f37" fill="#a05f37" style="animation-play-state:paused" ></path>
<path d="M 429 770 L 331 771 L 522 765 Z" stroke="#8a4e2c" fill="#8a4e2c" style="animation-play-state:paused" ></path>
<path d="M 1022 -49 L 914 -129 L 912 -37 Z" stroke="#e0b17a" fill="#e0b17a" style="animation-play-state:paused" ></path>
<path d="M 912 -37 L 914 -129 L 839 -146 Z" stroke="#e4bf8c" fill="#e4bf8c" style="animation-play-state:paused" ></path>
<path d="M 839 -146 L 914 -129 L 705 -146 Z" stroke="#e8cea1" fill="#e8cea1" style="animation-play-state:paused" ></path>
<path d="M 1022 -49 L 912 -37 L 1001 35 Z" stroke="#dc9e64" fill="#dc9e64" style="animation-play-state:paused" ></path>
<path d="M 1128 -25 L 1022 -49 L 1001 35 Z" stroke="#db995e" fill="#db995e" style="animation-play-state:paused" ></path>
<path d="M 235 -133 L 124 -46 L 242 -14 Z" stroke="#f4e8cb" fill="#f4e8cb" style="animation-play-state:paused" ></path>
<path d="M 411 -141 L 235 -133 L 320 -139 Z" stroke="#f6e9ce" fill="#f6e9ce" style="animation-play-state:paused" ></path>
<path d="M 320 -139 L 235 -133 L 314 -60 Z" stroke="#f5e8cc" fill="#f5e8cc" style="animation-play-state:paused" ></path>
<path d="M 1111 456 L 1136 355 L 1036 473 Z" stroke="#5c2f1f" fill="#5c2f1f" style="animation-play-state:paused" ></path>
<path d="M -5 161 L 22 244 L 121 163 Z" stroke="#e5c493" fill="#e5c493" style="animation-play-state:paused" ></path>
<path d="M 107 245 L -1 362 L 133 376 Z" stroke="#dea66c" fill="#dea66c" style="animation-play-state:paused" ></path>
<path d="M 115 439 L 33 573 L 122 569 Z" stroke="#d2874e" fill="#d2874e" style="animation-play-state:paused" ></path>
<path d="M -5 161 L 121 163 L 134 64 Z" stroke="#e8cc9e" fill="#e8cc9e" style="animation-play-state:paused" ></path>
<path d="M 1112 573 L 1036 473 L 1004 543 Z" stroke="#48251b" fill="#48251b" style="animation-play-state:paused" ></path>
<path d="M 1112 573 L 1111 456 L 1036 473 Z" stroke="#4b261c" fill="#4b261c" style="animation-play-state:paused" ></path>
<path d="M 1027 657 L 1004 543 L 908 652 Z" stroke="#412119" fill="#412119" style="animation-play-state:paused" ></path>
<path d="M 1232 276 L 1133 177 L 1123 249 Z" stroke="#8e512e" fill="#8e512e" style="animation-play-state:paused" ></path>
<path d="M 1123 249 L 1133 177 L 1010 156 Z" stroke="#9f5f36" fill="#9f5f36" style="animation-play-state:paused" ></path>
<path d="M 22 244 L -1 362 L 107 245 Z" stroke="#e1b37c" fill="#e1b37c" style="animation-play-state:paused" ></path>
<path d="M -1 362 L 36 472 L 115 439 Z" stroke="#db9b60" fill="#db9b60" style="animation-play-state:paused" ></path>
<path d="M 104 640 L 226 745 L 210 657 Z" stroke="#b67041" fill="#b67041" style="animation-play-state:paused" ></path>
<path d="M 925 771 L 1027 657 L 908 652 Z" stroke="#3b1e18" fill="#3b1e18" style="animation-play-state:paused" ></path>
<path d="M 9 67 L -5 161 L 134 64 Z" stroke="#ecd7af" fill="#ecd7af" style="animation-play-state:paused" ></path>
<path d="M 22 244 L -81 258 L -1 362 Z" stroke="#e3bb86" fill="#e3bb86" style="animation-play-state:paused" ></path>
<path d="M 210 657 L 226 745 L 331 669 Z" stroke="#a9663b" fill="#a9663b" style="animation-play-state:paused" ></path>
<path d="M 104 640 L 210 657 L 122 569 Z" stroke="#c07845" fill="#c07845" style="animation-play-state:paused" ></path>
<path d="M 33 573 L 104 640 L 122 569 Z" stroke="#cc824b" fill="#cc824b" style="animation-play-state:paused" ></path>
<path d="M 1133 177 L 1127 52 L 1010 156 Z" stroke="#b46f40" fill="#b46f40" style="animation-play-state:paused" ></path>
<path d="M 1022 -49 L 1040 -147 L 914 -129 Z" stroke="#e2ba85" fill="#e2ba85" style="animation-play-state:paused" ></path>
<path d="M 38 -22 L 134 64 L 124 -46 Z" stroke="#f2e6c7" fill="#f2e6c7" style="animation-play-state:paused" ></path>
<path d="M 38 -22 L 9 67 L 134 64 Z" stroke="#f0e2c0" fill="#f0e2c0" style="animation-play-state:paused" ></path>
<path d="M 731 754 L 925 771 L 833 757 Z" stroke="#4a261c" fill="#4a261c" style="animation-play-state:paused" ></path>
<path d="M 833 757 L 925 771 L 908 652 Z" stroke="#42221a" fill="#42221a" style="animation-play-state:paused" ></path>
<path d="M 522 765 L 925 771 L 731 754 Z" stroke="#5a2e1f" fill="#5a2e1f" style="animation-play-state:paused" ></path>
<path d="M 36 472 L 33 573 L 115 439 Z" stroke="#d98f54" fill="#d98f54" style="animation-play-state:paused" ></path>
<path d="M -104 561 L 33 573 L 36 472 Z" stroke="#da965b" fill="#da965b" style="animation-play-state:paused" ></path>
<path d="M 1027 657 L 1112 573 L 1004 543 Z" stroke="#3c1e18" fill="#3c1e18" style="animation-play-state:paused" ></path>
<path d="M 1215 373 L 1232 276 L 1136 355 Z" stroke="#6d3a22" fill="#6d3a22" style="animation-play-state:paused" ></path>
<path d="M 1133 664 L 1112 573 L 1027 657 Z" stroke="#2f1814" fill="#2f1814" style="animation-play-state:paused" ></path>
<path d="M 1128 -25 L 1040 -147 L 1022 -49 Z" stroke="#dfab73" fill="#dfab73" style="animation-play-state:paused" ></path>
<path d="M 914 -129 L 1094 -143 L 705 -146 Z" stroke="#e7c899" fill="#e7c899" style="animation-play-state:paused" ></path>
<path d="M 106 -164 L 38 -22 L 124 -46 Z" stroke="#f7ead2" fill="#f7ead2" style="animation-play-state:paused" ></path>
<path d="M -94 133 L -81 258 L -5 161 Z" stroke="#ead2a8" fill="#ead2a8" style="animation-play-state:paused" ></path>
<path d="M 1224 54 L 1128 -25 L 1127 52 Z" stroke="#d1864e" fill="#d1864e" style="animation-play-state:paused" ></path>
<path d="M 1127 52 L 1128 -25 L 1001 35 Z" stroke="#d78b51" fill="#d78b51" style="animation-play-state:paused" ></path>
<path d="M 1225 158 L 1127 52 L 1133 177 Z" stroke="#af6b3e" fill="#af6b3e" style="animation-play-state:paused" ></path>
<path d="M 235 -133 L 106 -164 L 124 -46 Z" stroke="#f8ead3" fill="#f8ead3" style="animation-play-state:paused" ></path>
<path d="M 411 -141 L 106 -164 L 235 -133 Z" stroke="#f8ead3" fill="#f8ead3" style="animation-play-state:paused" ></path>
<path d="M 1094 -143 L 106 -164 L 411 -141 Z" stroke="#f1e3c3" fill="#f1e3c3" style="animation-play-state:paused" ></path>
<path d="M 1215 373 L 1136 355 L 1206 448 Z" stroke="#5d3020" fill="#5d3020" style="animation-play-state:paused" ></path>
<path d="M 1136 355 L 1232 276 L 1123 249 Z" stroke="#7b4325" fill="#7b4325" style="animation-play-state:paused" ></path>
<path d="M -94 133 L -5 161 L -71 69 Z" stroke="#efddb9" fill="#efddb9" style="animation-play-state:paused" ></path>
<path d="M -5 161 L -81 258 L 22 244 Z" stroke="#e6c797" fill="#e6c797" style="animation-play-state:paused" ></path>
<path d="M -1 362 L -65 364 L 36 472 Z" stroke="#dea76e" fill="#dea76e" style="animation-play-state:paused" ></path>
<path d="M 925 771 L 1026 756 L 1027 657 Z" stroke="#321a15" fill="#321a15" style="animation-play-state:paused" ></path>
<path d="M 20 747 L 122 745 L 104 640 Z" stroke="#c57c48" fill="#c57c48" style="animation-play-state:paused" ></path>
<path d="M 104 640 L 122 745 L 226 745 Z" stroke="#b97342" fill="#b97342" style="animation-play-state:paused" ></path>
<path d="M 226 745 L 122 745 L 331 771 Z" stroke="#ab683c" fill="#ab683c" style="animation-play-state:paused" ></path>
<path d="M -81 258 L -65 364 L -1 362 Z" stroke="#e2b882" fill="#e2b882" style="animation-play-state:paused" ></path>
<path d="M 33 573 L -5 633 L 104 640 Z" stroke="#d1864e" fill="#d1864e" style="animation-play-state:paused" ></path>
<path d="M 1232 276 L 1225 158 L 1133 177 Z" stroke="#955731" fill="#955731" style="animation-play-state:paused" ></path>
<path d="M 1206 448 L 1136 355 L 1111 456 Z" stroke="#592d1f" fill="#592d1f" style="animation-play-state:paused" ></path>
<path d="M 1206 448 L 1111 456 L 1112 573 Z" stroke="#46241b" fill="#46241b" style="animation-play-state:paused" ></path>
<path d="M 1222 567 L 1206 448 L 1112 573 Z" stroke="#391d17" fill="#391d17" style="animation-play-state:paused" ></path>
<path d="M 1118 739 L 1133 664 L 1027 657 Z" stroke="#271511" fill="#271511" style="animation-play-state:paused" ></path>
<path d="M -104 561 L -5 633 L 33 573 Z" stroke="#d99358" fill="#d99358" style="animation-play-state:paused" ></path>
<path d="M -169 346 L -96 451 L -65 364 Z" stroke="#e2b782" fill="#e2b782" style="animation-play-state:paused" ></path>
<path d="M -65 364 L -96 451 L 36 472 Z" stroke="#dea86e" fill="#dea86e" style="animation-play-state:paused" ></path>
<path d="M 1220 -20 L 1224 54 L 1304 61 Z" stroke="#cb814b" fill="#cb814b" style="animation-play-state:paused" ></path>
<path d="M 1225 158 L 1224 54 L 1127 52 Z" stroke="#bb7443" fill="#bb7443" style="animation-play-state:paused" ></path>
<path d="M 1224 54 L 1225 158 L 1304 61 Z" stroke="#b77141" fill="#b77141" style="animation-play-state:paused" ></path>
<path d="M -71 69 L -5 161 L 9 67 Z" stroke="#efdeba" fill="#efdeba" style="animation-play-state:paused" ></path>
<path d="M -81 258 L -170 256 L -65 364 Z" stroke="#e6c594" fill="#e6c594" style="animation-play-state:paused" ></path>
<path d="M -71 69 L 9 67 L 38 -22 Z" stroke="#f3e7ca" fill="#f3e7ca" style="animation-play-state:paused" ></path>
<path d="M 1128 -25 L 1094 -143 L 1040 -147 Z" stroke="#e1b47d" fill="#e1b47d" style="animation-play-state:paused" ></path>
<path d="M 1040 -147 L 1094 -143 L 914 -129 Z" stroke="#e5c290" fill="#e5c290" style="animation-play-state:paused" ></path>
<path d="M 705 -146 L 1094 -143 L 411 -141 Z" stroke="#ebd4aa" fill="#ebd4aa" style="animation-play-state:paused" ></path>
<path d="M 1216 -135 L 1094 -143 L 1128 -25 Z" stroke="#e0b078" fill="#e0b078" style="animation-play-state:paused" ></path>
<path d="M -82 -42 L -71 69 L 38 -22 Z" stroke="#f6e9cf" fill="#f6e9cf" style="animation-play-state:paused" ></path>
<path d="M 1221 640 L 1222 567 L 1112 573 Z" stroke="#2b1613" fill="#2b1613" style="animation-play-state:paused" ></path>
<path d="M 1319 470 L 1323 337 L 1215 373 Z" stroke="#552c1e" fill="#552c1e" style="animation-play-state:paused" ></path>
<path d="M 106 -164 L 35 -136 L 38 -22 Z" stroke="#f9ecd7" fill="#f9ecd7" style="animation-play-state:paused" ></path>
<path d="M 1026 756 L 1118 739 L 1027 657 Z" stroke="#2a1612" fill="#2a1612" style="animation-play-state:paused" ></path>
<path d="M 1133 664 L 1221 640 L 1112 573 Z" stroke="#281512" fill="#281512" style="animation-play-state:paused" ></path>
<path d="M -96 451 L -104 561 L 36 472 Z" stroke="#dca167" fill="#dca167" style="animation-play-state:paused" ></path>
<path d="M -5 633 L 20 747 L 104 640 Z" stroke="#ce844c" fill="#ce844c" style="animation-play-state:paused" ></path>
<path d="M -163 458 L -104 561 L -96 451 Z" stroke="#dfac73" fill="#dfac73" style="animation-play-state:paused" ></path>
<path d="M -67 676 L 20 747 L -5 633 Z" stroke="#d78b50" fill="#d78b50" style="animation-play-state:paused" ></path>
<path d="M 122 745 L 20 747 L 331 771 Z" stroke="#b77141" fill="#b77141" style="animation-play-state:paused" ></path>
<path d="M 1212 760 L 1221 640 L 1133 664 Z" stroke="#1d0e0b" fill="#1d0e0b" style="animation-play-state:paused" ></path>
<path d="M 1333 164 L 1225 158 L 1232 276 Z" stroke="#925530" fill="#925530" style="animation-play-state:paused" ></path>
<path d="M 1224 54 L 1220 -20 L 1128 -25 Z" stroke="#d78c51" fill="#d78c51" style="animation-play-state:paused" ></path>
<path d="M 1319 470 L 1215 373 L 1206 448 Z" stroke="#4e271c" fill="#4e271c" style="animation-play-state:paused" ></path>
<path d="M 1215 373 L 1323 337 L 1232 276 Z" stroke="#6b3822" fill="#6b3822" style="animation-play-state:paused" ></path>
<path d="M 1319 470 L 1206 448 L 1315 552 Z" stroke="#3a1d18" fill="#3a1d18" style="animation-play-state:paused" ></path>
<path d="M -82 -115 L -82 -42 L 38 -22 Z" stroke="#f9ecd7" fill="#f9ecd7" style="animation-play-state:paused" ></path>
<path d="M -173 139 L -170 256 L -94 133 Z" stroke="#efdeba" fill="#efdeba" style="animation-play-state:paused" ></path>
<path d="M -173 139 L -94 133 L -161 53 Z" stroke="#f4e7ca" fill="#f4e7ca" style="animation-play-state:paused" ></path>
<path d="M -94 133 L -170 256 L -81 258 Z" stroke="#ead3a9" fill="#ead3a9" style="animation-play-state:paused" ></path>
<path d="M -172 571 L -67 676 L -104 561 Z" stroke="#dca066" fill="#dca066" style="animation-play-state:paused" ></path>
<path d="M -104 561 L -67 676 L -5 633 Z" stroke="#da965a" fill="#da965a" style="animation-play-state:paused" ></path>
<path d="M 1323 337 L 1329 269 L 1232 276 Z" stroke="#733d23" fill="#733d23" style="animation-play-state:paused" ></path>
<path d="M 1315 552 L 1206 448 L 1222 567 Z" stroke="#341b16" fill="#341b16" style="animation-play-state:paused" ></path>
<path d="M 1323 337 L 1420 353 L 1329 269 Z" stroke="#673621" fill="#673621" style="animation-play-state:paused" ></path>
<path d="M -170 256 L -169 346 L -65 364 Z" stroke="#e5c493" fill="#e5c493" style="animation-play-state:paused" ></path>
<path d="M 1329 269 L 1333 164 L 1232 276 Z" stroke="#854a29" fill="#854a29" style="animation-play-state:paused" ></path>
<path d="M 1448 279 L 1333 164 L 1329 269 Z" stroke="#814728" fill="#814728" style="animation-play-state:paused" ></path>
<path d="M -169 346 L -163 458 L -96 451 Z" stroke="#e2b882" fill="#e2b882" style="animation-play-state:paused" ></path>
<path d="M 35 -136 L -82 -115 L 38 -22 Z" stroke="#faecd8" fill="#faecd8" style="animation-play-state:paused" ></path>
<path d="M -161 53 L -94 133 L -71 69 Z" stroke="#f4e8cb" fill="#f4e8cb" style="animation-play-state:paused" ></path>
<path d="M -186 -130 L -82 -115 L 35 -136 Z" stroke="#fcefe0" fill="#fcefe0" style="animation-play-state:paused" ></path>
<path d="M 1220 -20 L 1216 -135 L 1128 -25 Z" stroke="#dca166" fill="#dca166" style="animation-play-state:paused" ></path>
<path d="M 1325 -46 L 1216 -135 L 1220 -20 Z" stroke="#dca066" fill="#dca066" style="animation-play-state:paused" ></path>
<path d="M -161 53 L -71 69 L -181 -18 Z" stroke="#f7ead1" fill="#f7ead1" style="animation-play-state:paused" ></path>
<path d="M -170 256 L -275 380 L -169 346 Z" stroke="#e8cda0" fill="#e8cda0" style="animation-play-state:paused" ></path>
<path d="M 1333 164 L 1304 61 L 1225 158 Z" stroke="#a9663b" fill="#a9663b" style="animation-play-state:paused" ></path>
<path d="M 1221 640 L 1315 552 L 1222 567 Z" stroke="#251310" fill="#251310" style="animation-play-state:paused" ></path>
<path d="M 1319 470 L 1425 447 L 1323 337 Z" stroke="#49251b" fill="#49251b" style="animation-play-state:paused" ></path>
<path d="M 1338 670 L 1315 552 L 1221 640 Z" stroke="#1d0e0b" fill="#1d0e0b" style="animation-play-state:paused" ></path>
<path d="M -181 -18 L -71 69 L -82 -42 Z" stroke="#f8ead3" fill="#f8ead3" style="animation-play-state:paused" ></path>
<path d="M -163 458 L -172 571 L -104 561 Z" stroke="#dfac73" fill="#dfac73" style="animation-play-state:paused" ></path>
<path d="M -173 671 L -172 571 L -288 574 Z" stroke="#e0af77" fill="#e0af77" style="animation-play-state:paused" ></path>
<path d="M 1026 756 L 1212 760 L 1118 739 Z" stroke="#1f0f0c" fill="#1f0f0c" style="animation-play-state:paused" ></path>
<path d="M 1118 739 L 1212 760 L 1133 664 Z" stroke="#1d0e0b" fill="#1d0e0b" style="animation-play-state:paused" ></path>
<path d="M 925 771 L 1212 760 L 1026 756 Z" stroke="#271411" fill="#271411" style="animation-play-state:paused" ></path>
<path d="M -173 671 L -94 745 L -67 676 Z" stroke="#db9a5f" fill="#db9a5f" style="animation-play-state:paused" ></path>
<path d="M -67 676 L -94 745 L 20 747 Z" stroke="#d88e53" fill="#d88e53" style="animation-play-state:paused" ></path>
<path d="M 20 747 L -270 763 L 331 771 Z" stroke="#cd834c" fill="#cd834c" style="animation-play-state:paused" ></path>
<path d="M 1401 51 L 1325 -46 L 1304 61 Z" stroke="#ca814a" fill="#ca814a" style="animation-play-state:paused" ></path>
<path d="M 1304 61 L 1325 -46 L 1220 -20 Z" stroke="#d5894f" fill="#d5894f" style="animation-play-state:paused" ></path>
<path d="M -186 -130 L -181 -18 L -82 -42 Z" stroke="#fbeedd" fill="#fbeedd" style="animation-play-state:paused" ></path>
<path d="M -292 238 L -170 256 L -173 139 Z" stroke="#f0e0bd" fill="#f0e0bd" style="animation-play-state:paused" ></path>
<path d="M -288 574 L -172 571 L -163 458 Z" stroke="#e1b57e" fill="#e1b57e" style="animation-play-state:paused" ></path>
<path d="M -172 571 L -173 671 L -67 676 Z" stroke="#dca167" fill="#dca167" style="animation-play-state:paused" ></path>
<path d="M 1212 760 L 1338 670 L 1221 640 Z" stroke="#1d0e0b" fill="#1d0e0b" style="animation-play-state:paused" ></path>
<path d="M 1315 552 L 1425 447 L 1319 470 Z" stroke="#341b16" fill="#341b16" style="animation-play-state:paused" ></path>
<path d="M -292 238 L -275 380 L -170 256 Z" stroke="#ecd8b0" fill="#ecd8b0" style="animation-play-state:paused" ></path>
<path d="M -169 346 L -275 380 L -163 458 Z" stroke="#e5c392" fill="#e5c392" style="animation-play-state:paused" ></path>
<path d="M -292 238 L -173 139 L -276 157 Z" stroke="#f4e7ca" fill="#f4e7ca" style="animation-play-state:paused" ></path>
<path d="M 1406 560 L 1425 447 L 1315 552 Z" stroke="#2a1612" fill="#2a1612" style="animation-play-state:paused" ></path>
<path d="M 1333 164 L 1401 51 L 1304 61 Z" stroke="#b26d3f" fill="#b26d3f" style="animation-play-state:paused" ></path>
<path d="M 1425 447 L 1420 353 L 1323 337 Z" stroke="#532b1e" fill="#532b1e" style="animation-play-state:paused" ></path>
<path d="M 1420 353 L 1448 279 L 1329 269 Z" stroke="#6b3922" fill="#6b3922" style="animation-play-state:paused" ></path>
<path d="M 1406 -59 L 1306 -157 L 1325 -46 Z" stroke="#dda46a" fill="#dda46a" style="animation-play-state:paused" ></path>
<path d="M 1325 -46 L 1306 -157 L 1216 -135 Z" stroke="#dfae76" fill="#dfae76" style="animation-play-state:paused" ></path>
<path d="M 1448 279 L 1419 181 L 1333 164 Z" stroke="#894e2c" fill="#894e2c" style="animation-play-state:paused" ></path>
<path d="M -82 -115 L -186 -130 L -82 -42 Z" stroke="#fcefdf" fill="#fcefdf" style="animation-play-state:paused" ></path>
<path d="M -276 157 L -173 139 L -288 49 Z" stroke="#f7e9d0" fill="#f7e9d0" style="animation-play-state:paused" ></path>
<path d="M 106 -164 L -186 -130 L 35 -136 Z" stroke="#fcefdf" fill="#fcefdf" style="animation-play-state:paused" ></path>
<path d="M -275 380 L -270 476 L -163 458 Z" stroke="#e5c391" fill="#e5c391" style="animation-play-state:paused" ></path>
<path d="M -173 139 L -161 53 L -288 49 Z" stroke="#f7ead1" fill="#f7ead1" style="animation-play-state:paused" ></path>
<path d="M -275 380 L -292 238 L -270 476 Z" stroke="#ead2a7" fill="#ead2a7" style="animation-play-state:paused" ></path>
<path d="M -288 49 L -161 53 L -274 -39 Z" stroke="#faecd9" fill="#faecd9" style="animation-play-state:paused" ></path>
<path d="M 1419 181 L 1401 51 L 1333 164 Z" stroke="#a36238" fill="#a36238" style="animation-play-state:paused" ></path>
<path d="M 1338 670 L 1406 560 L 1315 552 Z" stroke="#1d0e0b" fill="#1d0e0b" style="animation-play-state:paused" ></path>
<path d="M 1517 339 L 1448 279 L 1420 353 Z" stroke="#623320" fill="#623320" style="animation-play-state:paused" ></path>
<path d="M 1517 339 L 1519 254 L 1448 279 Z" stroke="#6b3822" fill="#6b3822" style="animation-play-state:paused" ></path>
<path d="M -274 -39 L -161 53 L -181 -18 Z" stroke="#faedd9" fill="#faedd9" style="animation-play-state:paused" ></path>
<path d="M -276 157 L -288 49 L -292 238 Z" stroke="#f6e9cf" fill="#f6e9cf" style="animation-play-state:paused" ></path>
<path d="M -276 644 L -197 764 L -173 671 Z" stroke="#dfab72" fill="#dfab72" style="animation-play-state:paused" ></path>
<path d="M -173 671 L -197 764 L -94 745 Z" stroke="#dca066" fill="#dca066" style="animation-play-state:paused" ></path>
<path d="M -94 745 L -270 763 L 20 747 Z" stroke="#db995e" fill="#db995e" style="animation-play-state:paused" ></path>
<path d="M 1212 760 L 1315 780 L 1338 670 Z" stroke="#1d0e0b" fill="#1d0e0b" style="animation-play-state:paused" ></path>
<path d="M 1338 670 L 1418 646 L 1406 560 Z" stroke="#1d0e0b" fill="#1d0e0b" style="animation-play-state:paused" ></path>
<path d="M 925 771 L 1315 780 L 1212 760 Z" stroke="#1d0e0b" fill="#1d0e0b" style="animation-play-state:paused" ></path>
<path d="M -292 238 L -288 574 L -270 476 Z" stroke="#e7cb9c" fill="#e7cb9c" style="animation-play-state:paused" ></path>
<path d="M -270 476 L -288 574 L -163 458 Z" stroke="#e3bc89" fill="#e3bc89" style="animation-play-state:paused" ></path>
<path d="M 1518 -18 L 1406 -59 L 1401 51 Z" stroke="#d2874e" fill="#d2874e" style="animation-play-state:paused" ></path>
<path d="M 1401 51 L 1406 -59 L 1325 -46 Z" stroke="#d78b51" fill="#d78b51" style="animation-play-state:paused" ></path>
<path d="M -186 -130 L -274 -39 L -181 -18 Z" stroke="#fcefe0" fill="#fcefe0" style="animation-play-state:paused" ></path>
<path d="M 1443 760 L 1418 646 L 1338 670 Z" stroke="#1d0e0b" fill="#1d0e0b" style="animation-play-state:paused" ></path>
<path d="M 1517 339 L 1420 353 L 1540 477 Z" stroke="#4b261c" fill="#4b261c" style="animation-play-state:paused" ></path>
<path d="M 1448 279 L 1519 254 L 1419 181 Z" stroke="#7d4426" fill="#7d4426" style="animation-play-state:paused" ></path>
<path d="M 1419 181 L 1528 46 L 1401 51 Z" stroke="#ae6a3d" fill="#ae6a3d" style="animation-play-state:paused" ></path>
<path d="M 1420 353 L 1425 447 L 1540 477 Z" stroke="#412119" fill="#412119" style="animation-play-state:paused" ></path>
<path d="M -288 574 L -276 644 L -173 671 Z" stroke="#e1b37c" fill="#e1b37c" style="animation-play-state:paused" ></path>
<path d="M -292 238 L -276 644 L -288 574 Z" stroke="#e6c594" fill="#e6c594" style="animation-play-state:paused" ></path>
<path d="M 1540 477 L 1425 447 L 1406 560 Z" stroke="#2c1713" fill="#2c1713" style="animation-play-state:paused" ></path>
<path d="M 1520 -148 L 1404 -152 L 1406 -59 Z" stroke="#dfac74" fill="#dfac74" style="animation-play-state:paused" ></path>
<path d="M 1406 -59 L 1404 -152 L 1306 -157 Z" stroke="#e0af77" fill="#e0af77" style="animation-play-state:paused" ></path>
<path d="M 1306 -157 L 1404 -152 L 1216 -135 Z" stroke="#e2b984" fill="#e2b984" style="animation-play-state:paused" ></path>
<path d="M 1216 -135 L 1404 -152 L 1094 -143 Z" stroke="#e2ba85" fill="#e2ba85" style="animation-play-state:paused" ></path>
<path d="M 1094 -143 L 1404 -152 L 106 -164 Z" stroke="#e9cea2" fill="#e9cea2" style="animation-play-state:paused" ></path>
<path d="M 106 -164 L -285 -156 L -186 -130 Z" stroke="#fef1e5" fill="#fef1e5" style="animation-play-state:paused" ></path>
<path d="M -186 -130 L -285 -156 L -274 -39 Z" stroke="#fef2e7" fill="#fef2e7" style="animation-play-state:paused" ></path>
<path d="M -274 -39 L -285 -156 L -288 49 Z" stroke="#fdf0e3" fill="#fdf0e3" style="animation-play-state:paused" ></path>
<path d="M -288 49 L -285 -156 L -292 238 Z" stroke="#faedd9" fill="#faedd9" style="animation-play-state:paused" ></path>
<path d="M 1620 271 L 1536 186 L 1519 254 Z" stroke="#7b4325" fill="#7b4325" style="animation-play-state:paused" ></path>
<path d="M 1519 254 L 1536 186 L 1419 181 Z" stroke="#864c2a" fill="#864c2a" style="animation-play-state:paused" ></path>
<path d="M 1546 561 L 1540 477 L 1406 560 Z" stroke="#1f100d" fill="#1f100d" style="animation-play-state:paused" ></path>
<path d="M 1517 339 L 1620 271 L 1519 254 Z" stroke="#6a3822" fill="#6a3822" style="animation-play-state:paused" ></path>
<path d="M -276 644 L -270 763 L -197 764 Z" stroke="#e0af77" fill="#e0af77" style="animation-play-state:paused" ></path>
<path d="M -197 764 L -270 763 L -94 745 Z" stroke="#dda56b" fill="#dda56b" style="animation-play-state:paused" ></path>
<path d="M 331 771 L -270 763 L 522 765 Z" stroke="#b06c3e" fill="#b06c3e" style="animation-play-state:paused" ></path>
<path d="M 1536 186 L 1528 46 L 1419 181 Z" stroke="#9e5d35" fill="#9e5d35" style="animation-play-state:paused" ></path>
<path d="M 1315 780 L 1443 760 L 1338 670 Z" stroke="#1d0e0b" fill="#1d0e0b" style="animation-play-state:paused" ></path>
<path d="M 1418 646 L 1546 561 L 1406 560 Z" stroke="#1d0e0b" fill="#1d0e0b" style="animation-play-state:paused" ></path>
<path d="M 925 771 L 1443 760 L 1315 780 Z" stroke="#1d0e0b" fill="#1d0e0b" style="animation-play-state:paused" ></path>
<path d="M 1530 652 L 1546 561 L 1418 646 Z" stroke="#1d0e0b" fill="#1d0e0b" style="animation-play-state:paused" ></path>
<path d="M 1640 384 L 1620 271 L 1517 339 Z" stroke="#5b2f1f" fill="#5b2f1f" style="animation-play-state:paused" ></path>
<path d="M 1608 48 L 1518 -18 L 1528 46 Z" stroke="#c47b47" fill="#c47b47" style="animation-play-state:paused" ></path>
<path d="M 1528 46 L 1518 -18 L 1401 51 Z" stroke="#c57c48" fill="#c57c48" style="animation-play-state:paused" ></path>
<path d="M 1522 739 L 1530 652 L 1418 646 Z" stroke="#1d0e0b" fill="#1d0e0b" style="animation-play-state:paused" ></path>
<path d="M 1518 -18 L 1520 -148 L 1406 -59 Z" stroke="#db9c61" fill="#db9c61" style="animation-play-state:paused" ></path>
<path d="M 1443 760 L 1522 739 L 1418 646 Z" stroke="#1d0e0b" fill="#1d0e0b" style="animation-play-state:paused" ></path>
<path d="M 1600 443 L 1517 339 L 1540 477 Z" stroke="#402019" fill="#402019" style="animation-play-state:paused" ></path>
<path d="M 1536 186 L 1608 48 L 1528 46 Z" stroke="#ac683c" fill="#ac683c" style="animation-play-state:paused" ></path>
<path d="M 1518 -18 L 1607 -129 L 1520 -148 Z" stroke="#dda369" fill="#dda369" style="animation-play-state:paused" ></path>
<path d="M 1600 443 L 1540 477 L 1546 561 Z" stroke="#281511" fill="#281511" style="animation-play-state:paused" ></path>
<path d="M 1600 443 L 1546 561 L 1648 588 Z" stroke="#1d0e0b" fill="#1d0e0b" style="animation-play-state:paused" ></path>
<path d="M 1648 588 L 1546 561 L 1628 679 Z" stroke="#1d0e0b" fill="#1d0e0b" style="animation-play-state:paused" ></path>
<path d="M 1640 384 L 1644 182 L 1620 271 Z" stroke="#6c3922" fill="#6c3922" style="animation-play-state:paused" ></path>
<path d="M 1620 271 L 1644 182 L 1536 186 Z" stroke="#824828" fill="#824828" style="animation-play-state:paused" ></path>
<path d="M 1648 588 L 1640 384 L 1600 443 Z" stroke="#2d1714" fill="#2d1714" style="animation-play-state:paused" ></path>
<path d="M 1600 443 L 1640 384 L 1517 339 Z" stroke="#49251b" fill="#49251b" style="animation-play-state:paused" ></path>
<path d="M 1644 182 L 1608 48 L 1536 186 Z" stroke="#9c5c34" fill="#9c5c34" style="animation-play-state:paused" ></path>
<path d="M 1628 679 L 1546 561 L 1530 652 Z" stroke="#1d0e0b" fill="#1d0e0b" style="animation-play-state:paused" ></path>
<path d="M 1644 182 L 1631 -40 L 1608 48 Z" stroke="#b57041" fill="#b57041" style="animation-play-state:paused" ></path>
<path d="M 1608 48 L 1631 -40 L 1518 -18 Z" stroke="#cd834c" fill="#cd834c" style="animation-play-state:paused" ></path>
<path d="M 1640 384 L 1631 -40 L 1644 182 Z" stroke="#8f522e" fill="#8f522e" style="animation-play-state:paused" ></path>
<path d="M 1623 751 L 1628 679 L 1530 652 Z" stroke="#1d0e0b" fill="#1d0e0b" style="animation-play-state:paused" ></path>
<path d="M 1631 -40 L 1607 -129 L 1518 -18 Z" stroke="#da965b" fill="#da965b" style="animation-play-state:paused" ></path>
<path d="M 1443 760 L 1623 751 L 1522 739 Z" stroke="#1d0e0b" fill="#1d0e0b" style="animation-play-state:paused" ></path>
<path d="M 1522 739 L 1623 751 L 1530 652 Z" stroke="#1d0e0b" fill="#1d0e0b" style="animation-play-state:paused" ></path></g>
<style type="text/css" style="animation-play-state:paused" >#bk-0.8367827359009865 path { stroke-width: 1 }</style></g></svg>